<svg width="23" height="23" viewBox="0 0 23 23" fill="none" xmlns="http://www.w3.org/2000/svg">
<g clip-path="url(#clip0_1_2689)">
<path d="M5.85054 6.21155L3.85792 6.36549C3.30345 6.40835 2.80963 6.69895 2.50299 7.16276L0.204943 10.6384C-0.0276155 10.9902 -0.0645859 11.4303 0.105981 11.816C0.276593 12.2016 0.627205 12.4703 1.04385 12.5348L2.86834 12.8174C3.29514 10.5524 4.31683 8.29308 5.85054 6.21155Z" fill="#FFD050"/>
<path d="M10.1836 20.1316L10.4662 21.9561C10.5307 22.3728 10.7995 22.7234 11.185 22.8939C11.3454 22.9649 11.5152 22.9999 11.6842 22.9999C11.9215 22.9999 12.1572 22.9308 12.3626 22.795L15.8384 20.497C16.3022 20.1903 16.5928 19.6964 16.6355 19.142L16.7895 17.1494C14.7079 18.6832 12.4486 19.7049 10.1836 20.1316Z" fill="#FFD050"/>
<path d="M9.49676 18.8667C9.5601 18.8667 9.6238 18.8614 9.68737 18.8508C10.6363 18.6922 11.5509 18.4249 12.4234 18.075L4.9246 10.5763C4.57476 11.4487 4.30747 12.3633 4.14881 13.3123C4.08628 13.6863 4.21174 14.0674 4.47988 14.3356L8.66405 18.5198C8.88668 18.7424 9.18716 18.8667 9.49676 18.8667Z" fill="#FFD050"/>
<path d="M21.1661 10.1973C23.0011 6.64969 23.0691 2.90072 22.9732 1.14249C22.9404 0.540047 22.4601 0.0597456 21.8576 0.026908C21.5713 0.0112753 21.232 0 20.8496 0C18.8835 0 15.7727 0.297785 12.8027 1.83397C10.4425 3.0548 7.34752 5.74295 5.52155 9.27567C5.54311 9.29251 5.56418 9.31039 5.58403 9.33025L13.6699 17.4161C13.6898 17.436 13.7076 17.457 13.7244 17.4786C17.2572 15.6525 19.9453 12.5576 21.1661 10.1973ZM13.3732 4.86231C14.6867 3.54876 16.8241 3.54862 18.1378 4.86231C18.7741 5.49862 19.1246 6.34472 19.1246 7.24463C19.1246 8.14454 18.7741 8.99064 18.1378 9.62695C17.4811 10.2837 16.6181 10.6121 15.7555 10.6122C14.8926 10.6122 14.03 10.2838 13.3732 9.62695C12.7368 8.99064 12.3863 8.14454 12.3863 7.24463C12.3863 6.34472 12.7368 5.49862 13.3732 4.86231Z" fill="#232536"/>
<path d="M14.3264 8.67403C15.1146 9.46218 16.3971 9.46223 17.1853 8.67403C17.5671 8.29219 17.7773 7.78458 17.7773 7.24462C17.7773 6.70466 17.5671 6.19704 17.1853 5.81525C16.7912 5.42115 16.2735 5.22412 15.7559 5.22412C15.2382 5.22412 14.7205 5.42115 14.3265 5.81525C13.9447 6.19704 13.7344 6.70466 13.7344 7.24462C13.7344 7.78458 13.9447 8.29224 14.3264 8.67403Z" fill="#232536"/>
<path d="M0.687462 18.954C0.859917 18.954 1.03237 18.8882 1.1639 18.7566L3.36386 16.5567C3.62702 16.2935 3.62702 15.8669 3.36386 15.6037C3.10076 15.3406 2.67409 15.3406 2.41093 15.6037L0.210975 17.8037C-0.0521773 18.0669 -0.0521773 18.4935 0.210975 18.7566C0.342551 18.8882 0.515006 18.954 0.687462 18.954Z" fill="#FFD050"/>
<path d="M5.38009 17.6201C5.11699 17.3569 4.69032 17.3569 4.42717 17.6201L0.197547 21.8497C-0.065605 22.1129 -0.065605 22.5395 0.197547 22.8026C0.329124 22.9342 0.501579 23 0.674034 23C0.846489 23 1.01894 22.9342 1.15048 22.8026L5.38005 18.573C5.64325 18.3099 5.64325 17.8832 5.38009 17.6201Z" fill="#FFD050"/>
<path d="M6.4422 19.6358L4.24229 21.8358C3.97913 22.099 3.97913 22.5256 4.24229 22.7887C4.37386 22.9203 4.54632 22.9861 4.71873 22.9861C4.89114 22.9861 5.06364 22.9203 5.19517 22.7887L7.39513 20.5888C7.65828 20.3256 7.65828 19.899 7.39513 19.6358C7.13202 19.3727 6.70535 19.3727 6.4422 19.6358Z" fill="#FFD050"/>
</g>
<defs>
<clipPath id="clip0_1_2689">
<rect width="23" height="23" fill="white"/>
</clipPath>
</defs>
</svg>
